<svg width="268" height="134" viewBox="0 0 268 134" fill="none" xmlns="http://www.w3.org/2000/svg">
<path fill-rule="evenodd" clip-rule="evenodd" d="M250.08 0.0111473L250.024 2.05065C250.013 2.40729 249.723 2.68592 249.367 2.67477L245.934 2.58561L245.845 6.01824C245.834 6.37487 245.544 6.65349 245.187 6.64235C244.831 6.6312 244.552 6.34144 244.563 5.9848L244.675 1.90577C244.686 1.54914 244.976 1.27052 245.332 1.28166L248.765 1.37082L248.798 0H250.08V0.0111473Z" fill="white" fill-opacity="0.3"/>
<path fill-rule="evenodd" clip-rule="evenodd" d="M257.781 127.196C258.138 127.208 258.416 127.497 258.405 127.854C258.394 128.211 258.104 128.489 257.748 128.478L254.315 128.389L254.226 131.822C254.215 132.178 253.925 132.457 253.568 132.446L250.136 132.357L250.102 133.75H248.821L248.876 131.677C248.887 131.32 249.177 131.041 249.534 131.053L252.966 131.142L253.056 127.709C253.067 127.353 253.357 127.074 253.713 127.085L257.781 127.196Z" fill="white" fill-opacity="0.3"/>
<path fill-rule="evenodd" clip-rule="evenodd" d="M227.779 98.6878C227.801 98.3312 228.102 98.0637 228.459 98.086C228.816 98.1083 229.083 98.4092 229.061 98.7659L228.86 102.198L232.293 102.399C232.649 102.421 232.917 102.722 232.895 103.079L232.694 106.512L236.127 106.712C236.483 106.734 236.751 107.035 236.728 107.392L236.528 110.825L239.96 111.025C240.317 111.048 240.585 111.348 240.562 111.705C240.54 112.062 240.239 112.329 239.882 112.307L235.814 112.062C235.458 112.039 235.19 111.739 235.213 111.382L235.413 107.949L231.981 107.749C231.624 107.726 231.357 107.425 231.379 107.069L231.579 103.636L228.147 103.424C227.79 103.402 227.523 103.101 227.545 102.745L227.779 98.6878Z" fill="white" fill-opacity="0.3"/>
<path fill-rule="evenodd" clip-rule="evenodd" d="M109.409 28.8987C109.755 28.9878 109.967 29.3333 109.877 29.6788C109.788 30.0243 109.443 30.2361 109.108 30.1469L105.765 29.3334L104.951 32.6657C104.862 33.0112 104.517 33.2229 104.171 33.1337L100.828 32.3202L100.014 35.6636C99.925 36.0091 99.5795 36.2209 99.234 36.1317L95.8905 35.3181L95.077 38.6616C94.9878 39.0071 94.6423 39.2189 94.2968 39.1297C93.9513 39.0405 93.7396 38.695 93.8287 38.3496L94.7984 34.382C94.8875 34.0365 95.233 33.8247 95.5785 33.9139L98.9108 34.7275L99.7244 31.384C99.8135 31.0385 100.159 30.8268 100.505 30.9159L103.848 31.7295L104.662 28.3972C104.751 28.0517 105.096 27.8399 105.442 27.9291L109.409 28.8987Z" fill="white" fill-opacity="0.3"/>
<path fill-rule="evenodd" clip-rule="evenodd" d="M245.042 73.5784C245.332 73.779 245.41 74.1802 245.21 74.47C245.009 74.7598 244.608 74.8378 244.318 74.6372L241.476 72.7091L239.548 75.551C239.347 75.8408 238.946 75.9188 238.656 75.7182L235.815 73.7902L233.886 76.6321C233.686 76.9219 233.285 76.9999 232.995 76.7993L230.153 74.8712L228.225 77.7132C228.024 78.0029 227.623 78.0809 227.333 77.8803C227.044 77.6797 226.966 77.2785 227.166 76.9887L229.451 73.6118C229.651 73.3221 230.053 73.2441 230.342 73.4447L233.184 75.3727L235.112 72.5308C235.313 72.241 235.714 72.163 236.004 72.3636L238.846 74.2917L240.774 71.4497C240.975 71.16 241.376 71.082 241.666 71.2826L245.042 73.5784Z" fill="white" fill-opacity="0.3"/>
<path fill-rule="evenodd" clip-rule="evenodd" d="M127.353 110.824C127.531 111.137 127.419 111.527 127.119 111.705C126.818 111.883 126.416 111.772 126.238 111.471L124.522 108.495L121.546 110.212C121.245 110.39 120.844 110.278 120.666 109.977L118.949 107.002L115.974 108.718C115.673 108.896 115.272 108.785 115.093 108.484L113.377 105.508L110.401 107.225C110.1 107.403 109.699 107.292 109.521 106.991C109.342 106.679 109.454 106.289 109.755 106.11L113.288 104.082C113.589 103.904 113.99 104.015 114.168 104.316L115.885 107.292L118.86 105.575C119.161 105.397 119.562 105.508 119.741 105.809L121.457 108.785L124.433 107.069C124.734 106.89 125.135 107.002 125.313 107.303L127.353 110.824Z" fill="white" fill-opacity="0.3"/>
<path fill-rule="evenodd" clip-rule="evenodd" d="M32.8216 81.4913C32.8439 81.8479 32.5653 82.1488 32.2198 82.1711C31.8631 82.1934 31.5622 81.9148 31.5399 81.5581L31.3616 78.1255L27.929 78.3038C27.5724 78.3261 27.2714 78.0475 27.2492 77.6909L27.0708 74.2582L23.6382 74.4366C23.2816 74.4588 22.9807 74.1802 22.9584 73.8236L22.7801 70.391L19.3474 70.5693C18.9908 70.5916 18.6899 70.313 18.6787 69.9563C18.6565 69.5997 18.9351 69.2988 19.2806 69.2765L23.3596 69.0647C23.7162 69.0424 24.0171 69.3211 24.0394 69.6665L24.2177 73.0992L27.6504 72.9208C28.007 72.8986 28.3079 73.1772 28.3302 73.5227L28.5085 76.9553L31.9411 76.777C32.2978 76.7547 32.5987 77.0333 32.621 77.39L32.8216 81.4913Z" fill="white" fill-opacity="0.3"/>
<path fill-rule="evenodd" clip-rule="evenodd" d="M186.51 10.2755C186.153 10.2755 185.863 9.98577 185.863 9.62913C185.863 9.27249 186.153 8.98273 186.51 8.98273H187.635V7.8571C187.635 7.50046 187.925 7.21069 188.282 7.21069C188.638 7.21069 188.928 7.50046 188.928 7.8571V8.98273H190.065C190.422 8.98273 190.711 9.27249 190.711 9.62913C190.711 9.98577 190.422 10.2755 190.065 10.2755H188.928V11.4123C188.928 11.769 188.638 12.0587 188.282 12.0587C187.925 12.0587 187.635 11.769 187.635 11.4123V10.2755H186.51Z" fill="white" fill-opacity="0.3"/>
<path fill-rule="evenodd" clip-rule="evenodd" d="M58.0313 7.89046C57.7081 7.73443 57.5744 7.3555 57.7304 7.0323C57.8864 6.7091 58.2765 6.57536 58.5886 6.73139L59.6027 7.22177L60.0931 6.20758C60.2491 5.88438 60.6281 5.75065 60.9513 5.90667C61.2745 6.0627 61.4082 6.45277 61.2522 6.76483L60.7618 7.77901L61.776 8.26938C62.0992 8.42541 62.2329 8.80434 62.0769 9.12754C61.9209 9.45074 61.5419 9.58449 61.2187 9.42846L60.2046 8.93808L59.7142 9.95225C59.5582 10.2755 59.1792 10.4092 58.856 10.2532C58.5328 10.0971 58.4102 9.71821 58.5551 9.39501L59.0455 8.38083L58.0313 7.89046Z" fill="white" fill-opacity="0.3"/>
<path fill-rule="evenodd" clip-rule="evenodd" d="M236.751 50.5642C236.617 50.241 236.773 49.8621 237.096 49.7283C237.419 49.5946 237.798 49.7506 237.932 50.0738L238.367 51.1215L239.414 50.6868C239.738 50.5531 240.116 50.7091 240.25 51.0323C240.384 51.3555 240.228 51.7344 239.905 51.8682L238.857 52.3028L239.281 53.3504C239.414 53.6736 239.258 54.0526 238.935 54.1863C238.612 54.32 238.233 54.164 238.099 53.8408L237.665 52.7932L236.617 53.2167C236.294 53.3504 235.915 53.1944 235.781 52.8712C235.647 52.548 235.803 52.1691 236.127 52.0353L237.174 51.6007L236.751 50.5642Z" fill="white" fill-opacity="0.3"/>
<path fill-rule="evenodd" clip-rule="evenodd" d="M180.302 101.274C180.324 100.917 180.625 100.649 180.982 100.672C181.338 100.694 181.606 100.995 181.584 101.352L181.517 102.477L182.642 102.544C182.999 102.566 183.266 102.867 183.244 103.224C183.222 103.581 182.921 103.848 182.564 103.826L181.439 103.759L181.372 104.884C181.349 105.241 181.049 105.509 180.692 105.486C180.335 105.464 180.068 105.163 180.09 104.806L180.157 103.681L179.031 103.614C178.675 103.592 178.407 103.291 178.43 102.934C178.452 102.577 178.753 102.31 179.109 102.332L180.235 102.399L180.302 101.274Z" fill="white" fill-opacity="0.3"/>
<path fill-rule="evenodd" clip-rule="evenodd" d="M115.951 2.78613C115.817 2.46293 115.973 2.08401 116.297 1.95027C116.62 1.81653 116.999 1.97255 117.133 2.29576L117.567 3.34338L118.615 2.90873C118.938 2.77499 119.317 2.93101 119.451 3.25422C119.584 3.57742 119.428 3.95634 119.105 4.09008L118.058 4.52473L118.492 5.57235C118.626 5.89556 118.47 6.27448 118.147 6.40822C117.824 6.54196 117.445 6.38593 117.311 6.06273L116.876 5.01511L115.829 5.44976C115.505 5.5835 115.126 5.42747 114.993 5.10427C114.859 4.78107 115.015 4.40214 115.338 4.2684L116.386 3.83375L115.951 2.78613Z" fill="white" fill-opacity="0.3"/>
<path fill-rule="evenodd" clip-rule="evenodd" d="M82.9291 78.2705C82.6393 78.0699 82.5502 77.6798 82.7508 77.3789C82.9402 77.078 83.3415 77 83.6424 77.2006L84.5785 77.8247L85.2026 76.8886C85.4033 76.5988 85.7933 76.5096 86.0942 76.7102C86.384 76.9108 86.462 77.3009 86.2726 77.6018L85.6484 78.538L86.5846 79.1621C86.8744 79.3627 86.9635 79.7639 86.7629 80.0537C86.5623 80.3435 86.1723 80.4326 85.8713 80.232L84.9352 79.6079L84.3111 80.5441C84.1104 80.8338 83.7092 80.923 83.4195 80.7224C83.1297 80.5218 83.0405 80.1206 83.2411 79.8308L83.8653 78.8946L82.9291 78.2705Z" fill="white" fill-opacity="0.3"/>
<path fill-rule="evenodd" clip-rule="evenodd" d="M156.53 45.7164L160.698 42.8855L160.732 42.8633L164.866 40.0436C165.156 39.843 165.234 39.4418 165.033 39.152C164.967 39.0517 164.877 38.9848 164.788 38.9403L160.252 36.7559L155.716 34.5715C155.393 34.4154 155.014 34.5492 154.858 34.8724C154.802 34.995 154.78 35.1287 154.802 35.2513L155.17 40.2219L155.549 45.2483C155.571 45.6049 155.884 45.8612 156.24 45.8389C156.34 45.8167 156.441 45.7832 156.53 45.7164ZM159.974 41.8268L156.731 44.0446L156.441 40.1216L156.151 36.2098L159.695 37.9149L163.239 39.6201L160.029 41.8045L159.974 41.8268Z" fill="white" fill-opacity="0.3"/>
<path fill-rule="evenodd" clip-rule="evenodd" d="M30.7932 3.52187L35.7973 4.12369H35.8419L40.8125 4.71437C41.158 4.75895 41.4812 4.50262 41.5258 4.15713C41.5369 4.04568 41.5258 3.93423 41.4812 3.83393L39.8429 0.0112305H38.4498L39.8652 3.31011L36.009 2.85317L35.9756 2.84203L32.0749 2.37394L33.8469 0.0112305H32.2198L30.3586 2.49653C30.1468 2.77516 30.2026 3.17638 30.4923 3.39928C30.5815 3.46614 30.6818 3.51072 30.7932 3.52187Z" fill="white" fill-opacity="0.3"/>
<path fill-rule="evenodd" clip-rule="evenodd" d="M39.8319 133.75L39.4864 132.936L37.5026 128.3C37.3689 127.977 36.99 127.821 36.6556 127.965C36.533 128.021 36.4327 128.11 36.3659 128.222L33.379 132.212L32.22 133.75H33.8248L34.4044 132.97L36.7559 129.827L38.3051 133.438L38.4388 133.75H39.8319V133.75Z" fill="white" fill-opacity="0.3"/>
<path fill-rule="evenodd" clip-rule="evenodd" d="M228.258 28.1963H233.296H233.34H238.344C238.69 28.1963 238.98 27.9066 238.98 27.5611C238.98 27.4385 238.946 27.3382 238.891 27.2379L236.372 22.8691L233.853 18.5114C233.675 18.1994 233.285 18.0991 232.973 18.2774C232.85 18.3442 232.761 18.4446 232.716 18.5671L230.231 22.8802L227.712 27.249C227.534 27.5499 227.645 27.9511 227.946 28.1183C228.047 28.1629 228.147 28.1963 228.258 28.1963ZM233.296 26.9147H229.362L231.323 23.5155L233.285 20.1163L235.246 23.5155L237.208 26.9147H233.318H233.296Z" fill="white" fill-opacity="0.3"/>
<path fill-rule="evenodd" clip-rule="evenodd" d="M198.78 67.4041C198.88 66.9806 199.315 66.7131 199.75 66.8134C200.184 66.9137 200.441 67.3484 200.34 67.783L197.342 80.2096C197.242 80.6442 196.807 80.9006 196.373 80.8003C195.938 80.6999 195.682 80.2653 195.782 79.8307L198.78 67.4041ZM206.949 63.8823C207.016 63.86 207.072 63.8266 207.139 63.8043C208.253 63.5368 209.256 62.9796 210.059 62.1994C210.872 61.4082 211.463 60.3828 211.742 59.2349C211.965 58.3322 211.965 57.396 211.775 56.5044L211.764 56.4598C211.597 55.6908 211.274 54.9441 210.817 54.2866C211.095 52.9938 210.839 51.7121 210.192 50.6645C209.568 49.6392 208.565 48.8367 207.339 48.4801C207.094 46.6635 206.336 45.0029 205.188 43.6655C203.929 42.1721 202.202 41.0688 200.207 40.5895C198.189 40.0991 196.128 40.3109 194.3 41.091C192.595 41.8155 191.101 43.0525 190.065 44.6797C189.04 44.858 188.07 45.2258 187.201 45.7607C185.429 46.8529 184.069 48.6138 183.534 50.7982C183.166 52.3028 183.255 53.8631 183.735 55.2896C184.091 56.3595 184.682 57.3626 185.462 58.2096L180.079 80.5551C180.068 80.5774 180.068 80.5996 180.057 80.6219C179.956 81.0566 180.224 81.4912 180.647 81.5915L200.708 86.4173C201.143 86.5176 201.566 86.2612 201.678 85.8266L202.982 80.4102L205.233 80.9563C206.258 81.2015 207.284 81.012 208.131 80.5216C208.153 80.5105 208.175 80.4993 208.186 80.4882C209.045 79.9644 209.702 79.1174 209.947 78.0698L211.965 69.6999C212.221 68.6523 212.02 67.6047 211.496 66.7466C210.973 65.8884 210.126 65.2309 209.078 64.9857L206.827 64.4396L206.949 63.8823ZM186.621 60.1599L181.795 80.2096L200.296 84.6675L201.577 79.3291C201.577 79.3068 201.589 79.2845 201.589 79.2623L205.066 64.8408C205.077 64.8185 205.077 64.7962 205.088 64.7739L205.2 64.3058C204.653 64.3393 204.096 64.2947 203.55 64.161C202.569 63.9269 201.689 63.4254 200.998 62.7456C200.563 62.3109 200.196 61.8205 199.917 61.2521C199.828 61.2967 199.739 61.3413 199.649 61.3859C198.546 61.9097 197.276 62.0546 196.027 61.7537C195.426 61.6088 194.857 61.3636 194.344 61.0292C194.133 60.8955 193.943 60.7506 193.754 60.5946C193.33 61.1072 192.806 61.5196 192.216 61.7982C191.335 62.2106 190.31 62.3332 189.318 62.0991C188.449 61.8874 187.691 61.4305 187.111 60.7952C186.933 60.5946 186.766 60.3828 186.621 60.1599ZM208.699 66.5237C209.312 66.6685 209.814 67.0586 210.126 67.5601C210.438 68.0617 210.549 68.6858 210.404 69.2987L208.387 77.6685C208.242 78.2815 207.852 78.783 207.351 79.0951L207.306 79.1285C206.816 79.4183 206.203 79.5186 205.601 79.3737L203.35 78.8388L206.448 65.9776L208.699 66.5237ZM187.29 57.7304C186.32 56.9391 185.618 55.9026 185.239 54.7658C184.86 53.629 184.793 52.3808 185.083 51.1549C185.507 49.4051 186.599 47.9897 188.025 47.1093C189.452 46.2288 191.213 45.9056 192.963 46.3291C194.11 46.6078 195.136 47.1761 195.96 47.9674C196.785 48.7476 197.398 49.7506 197.721 50.8874C197.844 51.3109 198.29 51.5561 198.713 51.4335C199.137 51.3109 199.382 50.8651 199.259 50.4416C198.858 49.0262 198.089 47.7891 197.064 46.8084C196.038 45.8276 194.768 45.1143 193.341 44.7689C192.929 44.6686 192.528 44.6017 192.115 44.5683C192.896 43.6878 193.854 42.9968 194.913 42.5399C196.417 41.8935 198.134 41.7263 199.817 42.1275C201.477 42.5287 202.904 43.4426 203.951 44.6797C204.81 45.6939 205.411 46.931 205.668 48.2795C205.344 48.3018 205.021 48.3464 204.698 48.4244C203.929 48.625 203.193 49.0151 202.581 49.5723C202.257 49.8732 202.235 50.3747 202.525 50.7091C202.826 51.0323 203.327 51.0546 203.662 50.7536C204.074 50.3747 204.564 50.1184 205.088 49.9847C205.612 49.8509 206.169 49.8398 206.715 49.9735C207.618 50.1964 208.354 50.7537 208.799 51.4892C209.245 52.2248 209.412 53.1275 209.201 54.0302C209.178 54.1194 209.167 54.1751 209.156 54.2197C209.067 54.5095 209.156 54.8104 209.345 55.011C209.758 55.546 210.036 56.1589 210.181 56.8053L210.192 56.8499C210.326 57.5074 210.326 58.1873 210.159 58.856C209.947 59.7141 209.513 60.4608 208.911 61.0515C208.309 61.6422 207.551 62.0657 206.693 62.2552C206.615 62.2775 206.537 62.2997 206.481 62.3332C206.091 62.5115 205.679 62.6341 205.255 62.6787C204.821 62.7233 204.375 62.701 203.929 62.5895C203.227 62.4224 202.603 62.0657 202.112 61.5865C201.734 61.2075 201.421 60.7618 201.221 60.2491C201.622 59.8367 201.968 59.3575 202.235 58.8114C202.424 58.4102 202.257 57.931 201.867 57.7415C201.466 57.552 200.987 57.7081 200.797 58.1093C200.574 58.5662 200.274 58.9563 199.906 59.2906C199.817 59.3352 199.739 59.4021 199.683 59.4801C199.46 59.6584 199.215 59.8033 198.958 59.9259C198.178 60.2937 197.287 60.4051 196.395 60.1822C195.96 60.0819 195.559 59.9036 195.203 59.6696C194.846 59.4355 194.512 59.1457 194.244 58.8003C193.977 58.4548 193.475 58.3879 193.119 58.6554C192.996 58.7445 192.918 58.8671 192.862 59.0009L192.851 59.0343C192.561 59.6138 192.093 60.0708 191.525 60.3271C190.968 60.5946 190.321 60.6615 189.686 60.5166C189.129 60.3828 188.649 60.0931 188.282 59.6918C187.925 59.3018 187.669 58.8003 187.58 58.2542C187.557 58.0647 187.457 57.8752 187.29 57.7304ZM189.441 65.1528C189.541 64.7182 189.976 64.4619 190.41 64.5622C190.845 64.6625 191.101 65.0971 191.001 65.5318L188.003 77.9583C187.903 78.3818 187.468 78.6493 187.033 78.549C186.599 78.4487 186.342 78.014 186.443 77.5794L189.441 65.1528ZM194.11 66.2785L191.112 78.705C191.012 79.1397 191.28 79.5632 191.703 79.6746C192.138 79.7749 192.572 79.5075 192.673 79.0839L195.671 66.6574C195.771 66.2227 195.504 65.7881 195.08 65.6878C194.657 65.5764 194.222 65.8438 194.11 66.2785Z" fill="white" fill-opacity="0.3"/>
<path fill-rule="evenodd" clip-rule="evenodd" d="M56.5604 45.0808C56.4489 44.6573 56.7052 44.2115 57.1399 44.1001C57.5634 43.9886 58.0092 44.2449 58.1206 44.6796L61.3081 57.0616C61.4195 57.4962 61.1632 57.9309 60.7285 58.0423C60.2939 58.1538 59.8592 57.8974 59.7478 57.4628L56.5604 45.0808ZM62.1217 38.1487C62.1662 38.093 62.2108 38.0484 62.2443 37.9927C63.1136 37.2348 63.7265 36.2652 64.072 35.2064C64.4175 34.1254 64.4621 32.944 64.1612 31.8073C63.9271 30.9045 63.5036 30.0798 62.9129 29.3777L62.8795 29.3442C62.3668 28.7424 61.7427 28.2409 61.0183 27.862C60.6617 26.5915 59.8258 25.5773 58.767 24.9532C57.7306 24.3402 56.4712 24.1061 55.223 24.3625C54.1531 22.8802 52.7042 21.7657 51.0659 21.1082C49.2493 20.3838 47.2098 20.2166 45.226 20.7293C43.2088 21.2419 41.4925 22.3898 40.2443 23.939C39.0852 25.3767 38.3385 27.171 38.1825 29.0879C37.3689 29.7232 36.6779 30.5033 36.1652 31.3838C35.1065 33.1781 34.7275 35.3736 35.2848 37.5469C35.6749 39.0514 36.4773 40.3888 37.5695 41.4142C38.3942 42.1943 39.375 42.8073 40.456 43.1862L46.1733 65.4537C46.1733 65.4759 46.1845 65.4982 46.1845 65.5205C46.2959 65.9552 46.7306 66.2115 47.1652 66.1001L67.148 60.9623C67.5715 60.8508 67.8278 60.4162 67.7275 59.9927L66.3456 54.5985L68.5857 54.019C69.5999 53.7627 70.4246 53.1163 70.9373 52.2693C70.9484 52.247 70.9595 52.2358 70.9707 52.2135C71.4834 51.3442 71.6617 50.2966 71.3942 49.249L69.2544 40.9126C68.9869 39.8762 68.3182 39.0403 67.4489 38.5276C66.5796 38.015 65.532 37.8366 64.4844 38.1041L62.2443 38.6837L62.1217 38.1487ZM42.4175 44.3787L47.5553 64.3503L65.9889 59.6137L64.6181 54.2865C64.607 54.2642 64.607 54.2419 64.5958 54.2196L60.9069 39.8539C60.8957 39.8316 60.8957 39.8093 60.8957 39.787L60.7731 39.33C60.305 39.6198 59.7924 39.8427 59.2574 39.9765C58.2767 40.2216 57.2736 40.1994 56.3375 39.9207C55.7468 39.7424 55.1895 39.4749 54.688 39.1072C54.6323 39.1963 54.5766 39.2743 54.5097 39.3523C53.7853 40.3331 52.7265 41.0575 51.4894 41.3807C50.8988 41.5367 50.2746 41.5813 49.6617 41.5256C49.4165 41.5033 49.1713 41.4699 48.9373 41.4142C48.8035 42.0606 48.536 42.6735 48.146 43.1862C47.5664 43.9663 46.7194 44.557 45.7275 44.8133C44.8694 45.0362 43.9778 44.9805 43.1642 44.7019C42.8967 44.6239 42.6516 44.5124 42.4175 44.3787ZM64.8967 39.6533C65.5097 39.4972 66.1338 39.5975 66.6465 39.8984C67.1591 40.1994 67.5492 40.6897 67.7052 41.3139L69.8451 49.6502C70.0011 50.2632 69.8896 50.8873 69.5887 51.4L69.5664 51.4445C69.2655 51.9349 68.7751 52.3027 68.1845 52.4587L65.9444 53.0383L62.6455 40.2216L64.8967 39.6533ZM41.8826 41.9268C40.6566 41.6816 39.5533 41.091 38.684 40.2662C37.8147 39.4415 37.1683 38.3716 36.8562 37.1568C36.4104 35.4071 36.7113 33.6462 37.5583 32.2085C38.4054 30.7708 39.8096 29.6563 41.5594 29.2105C42.7073 28.9207 43.8775 28.943 44.9697 29.2551C46.0619 29.5671 47.0761 30.1578 47.8896 31.0048C48.2017 31.328 48.7032 31.328 49.0264 31.0271C49.3496 30.7262 49.3496 30.2136 49.0487 29.8903C48.0345 28.8316 46.7752 28.096 45.4043 27.7059C44.0447 27.3159 42.5847 27.2824 41.1581 27.6502C40.7569 27.7505 40.3557 27.8843 39.9879 28.0514C40.2665 26.9035 40.7904 25.8447 41.5148 24.9532C42.5401 23.6715 43.9778 22.7242 45.6495 22.2895C47.299 21.866 48.993 21.9998 50.4975 22.6016C51.7346 23.092 52.838 23.9055 53.6961 24.9755C53.4175 25.1426 53.15 25.3432 52.9048 25.5661C52.3142 26.1011 51.8572 26.7921 51.5786 27.5722C51.4337 27.9846 51.6455 28.4527 52.069 28.5975C52.4813 28.7424 52.9383 28.5307 53.0943 28.1072C53.2838 27.5834 53.5958 27.1153 53.997 26.7475C54.3983 26.3797 54.8886 26.1122 55.4347 25.9673C56.3375 25.7333 57.2513 25.8893 57.9869 26.324C58.7225 26.7586 59.302 27.483 59.536 28.3858C59.5583 28.4749 59.5695 28.5307 59.5806 28.5752C59.6363 28.865 59.8481 29.0879 60.1156 29.1771C60.7285 29.4557 61.2635 29.868 61.687 30.3807L61.7093 30.4141C62.1328 30.9268 62.456 31.5398 62.6232 32.2085C62.8461 33.0555 62.8126 33.9248 62.5563 34.7272C62.3 35.5297 61.8319 36.2652 61.1632 36.8224C61.1075 36.8782 61.0517 36.9339 61.0072 37.0008C60.7508 37.3463 60.4388 37.636 60.0821 37.8812C59.7144 38.1264 59.3131 38.3159 58.8674 38.4273C58.1652 38.6056 57.452 38.5833 56.7944 38.3939C56.2817 38.2379 55.8025 37.9815 55.3901 37.636C55.5462 37.0788 55.6353 36.4993 55.613 35.8974C55.6019 35.4516 55.223 35.1061 54.7883 35.1284C54.3425 35.1396 53.997 35.5185 54.0193 35.9531C54.0305 36.4658 53.9525 36.9562 53.7853 37.4131C53.7296 37.5023 53.6961 37.5915 53.6738 37.6806C53.5512 37.9369 53.4064 38.1821 53.2392 38.4162C52.7265 39.1072 51.9798 39.6198 51.0994 39.8427C50.6759 39.9542 50.2301 39.9876 49.8066 39.9542C49.3719 39.9207 48.9484 39.8093 48.5472 39.631C48.146 39.4526 47.6667 39.631 47.4884 40.0322C47.4216 40.1659 47.4104 40.3108 47.4216 40.4557V40.4891C47.4439 41.1467 47.2321 41.7596 46.8643 42.2612C46.4965 42.7515 45.9616 43.1305 45.3263 43.2865C44.7691 43.4314 44.2118 43.3979 43.6992 43.2196C43.1977 43.0413 42.7407 42.7181 42.4064 42.2835C42.2726 42.094 42.0943 41.9714 41.8826 41.9268ZM47.2544 47.4658C47.1429 47.0423 47.3993 46.5965 47.8339 46.4851C48.2686 46.3736 48.7032 46.6299 48.8147 47.0646L52.0021 59.4466C52.1136 59.8701 51.8572 60.3159 51.4226 60.4273C50.9991 60.5388 50.5533 60.2824 50.4418 59.8478L47.2544 47.4658ZM51.9018 46.2733L55.0892 58.6553C55.2007 59.0788 55.6353 59.3463 56.07 59.2348C56.4935 59.1234 56.761 58.6887 56.6495 58.2541L53.4732 45.8721C53.3618 45.4486 52.9271 45.1811 52.4925 45.2926C52.0578 45.4152 51.7904 45.8498 51.9018 46.2733Z" fill="white" fill-opacity="0.3"/>
<path fill-rule="evenodd" clip-rule="evenodd" d="M149.743 130.785C149.62 130.362 149.185 130.105 148.751 130.228C148.327 130.351 148.071 130.785 148.194 131.22L148.896 133.75H150.567L149.743 130.785ZM141.462 127.553C141.395 127.531 141.339 127.509 141.273 127.475C140.147 127.252 139.122 126.717 138.308 125.971C137.472 125.202 136.848 124.199 136.536 123.062C136.291 122.17 136.246 121.234 136.413 120.342L136.425 120.298C136.569 119.529 136.859 118.771 137.305 118.091C136.982 116.81 137.205 115.517 137.807 114.447C138.397 113.399 139.367 112.574 140.582 112.173C140.771 110.357 141.473 108.663 142.565 107.292C143.78 105.754 145.463 104.606 147.447 104.06C149.453 103.503 151.515 103.647 153.365 104.361C155.092 105.029 156.619 106.211 157.722 107.804C158.748 107.949 159.728 108.284 160.62 108.785C162.437 109.811 163.852 111.527 164.454 113.7C164.866 115.194 164.833 116.754 164.409 118.192C164.086 119.273 163.54 120.298 162.782 121.167L166.271 133.783H164.61L161.679 123.173C161.545 123.407 161.389 123.619 161.222 123.82C160.665 124.466 159.918 124.956 159.06 125.19C158.068 125.469 157.043 125.38 156.151 124.99C155.56 124.734 155.014 124.343 154.58 123.842C154.401 124.009 154.201 124.165 154 124.299C153.499 124.644 152.93 124.912 152.339 125.079C151.102 125.425 149.821 125.313 148.706 124.823C148.617 124.778 148.517 124.745 148.428 124.689C148.171 125.257 147.826 125.77 147.402 126.216C146.722 126.929 145.864 127.453 144.895 127.72C144.36 127.865 143.802 127.932 143.256 127.91L143.379 128.367C143.39 128.389 143.39 128.411 143.401 128.434L144.872 133.761H143.201L142.064 129.637L139.835 130.25C139.222 130.417 138.732 130.819 138.442 131.342C138.152 131.855 138.052 132.479 138.219 133.092L138.408 133.761H136.748L136.681 133.516C136.391 132.479 136.558 131.42 137.049 130.551C137.539 129.682 138.375 128.991 139.4 128.712L141.629 128.099L141.462 127.553ZM160.899 120.744C161.835 119.919 162.504 118.86 162.849 117.701C163.195 116.553 163.217 115.305 162.882 114.09C162.403 112.352 161.266 110.97 159.807 110.145C158.358 109.32 156.586 109.053 154.847 109.532C153.71 109.844 152.707 110.457 151.905 111.271C151.113 112.084 150.534 113.109 150.244 114.246C150.133 114.67 149.698 114.937 149.275 114.826C148.851 114.714 148.584 114.28 148.695 113.856C149.052 112.441 149.776 111.159 150.768 110.145C151.76 109.131 153.008 108.373 154.424 107.983C154.825 107.871 155.237 107.793 155.638 107.749C154.836 106.891 153.855 106.233 152.774 105.821C151.247 105.23 149.531 105.119 147.859 105.576C146.221 106.032 144.817 106.991 143.814 108.261C142.989 109.309 142.432 110.557 142.22 111.917C142.554 111.928 142.877 111.962 143.189 112.04C143.97 112.218 144.716 112.574 145.34 113.109C145.675 113.399 145.719 113.901 145.43 114.235C145.14 114.569 144.638 114.614 144.304 114.324C143.88 113.968 143.379 113.722 142.844 113.6C142.32 113.488 141.752 113.488 141.217 113.644C140.314 113.89 139.601 114.48 139.188 115.227C138.765 115.974 138.631 116.888 138.876 117.779C138.899 117.868 138.921 117.924 138.932 117.969C139.032 118.258 138.954 118.548 138.765 118.76C138.375 119.306 138.119 119.93 137.996 120.577L137.985 120.621C137.873 121.279 137.896 121.97 138.085 122.627C138.319 123.474 138.776 124.21 139.4 124.778C140.024 125.347 140.793 125.748 141.651 125.904C141.73 125.915 141.808 125.948 141.874 125.982C142.276 126.149 142.688 126.249 143.111 126.283C143.546 126.316 143.992 126.272 144.438 126.149C145.129 125.959 145.742 125.581 146.221 125.079C146.589 124.689 146.878 124.232 147.068 123.719C146.656 123.318 146.288 122.85 146.009 122.326C145.797 121.936 145.953 121.457 146.343 121.245C146.734 121.033 147.213 121.189 147.425 121.58C147.659 122.025 147.982 122.415 148.35 122.727C148.439 122.772 148.517 122.839 148.584 122.906C148.818 123.073 149.063 123.218 149.319 123.329C150.11 123.664 151.013 123.742 151.894 123.508C152.317 123.396 152.718 123.207 153.075 122.962C153.432 122.716 153.744 122.415 154 122.059C154.256 121.702 154.758 121.624 155.115 121.88C155.237 121.97 155.326 122.081 155.382 122.215L155.404 122.248C155.705 122.828 156.196 123.262 156.775 123.508C157.343 123.753 157.99 123.809 158.625 123.63C159.171 123.474 159.65 123.173 160.007 122.761C160.353 122.36 160.587 121.847 160.654 121.301C160.642 121.089 160.732 120.889 160.899 120.744ZM158.993 128.233C158.881 127.81 158.436 127.553 158.001 127.676C157.578 127.798 157.321 128.233 157.444 128.668L158.848 133.761H160.509L158.993 128.233ZM154.368 129.515C154.245 129.091 153.811 128.835 153.376 128.957C152.952 129.08 152.696 129.515 152.819 129.949L153.877 133.761H155.538L154.368 129.515Z" fill="white" fill-opacity="0.3"/>
<path fill-rule="evenodd" clip-rule="evenodd" d="M148.885 0.0111473L151.593 9.8075C151.704 10.231 152.15 10.4873 152.585 10.3647C153.008 10.2421 153.264 9.8075 153.142 9.37285L150.556 0.0111473H148.885V0.0111473ZM136.714 0.0111473H138.375L140.481 7.63424C140.648 8.24721 141.05 8.73759 141.574 9.02736L141.618 9.04964C142.12 9.32826 142.733 9.40627 143.323 9.2391L145.552 8.62613L143.167 0H144.839L147.324 8.97163C147.324 8.99392 147.335 9.01621 147.335 9.0385L148.795 14.3323L167.14 9.26139L164.577 0H166.237L168.878 9.54001C168.89 9.5623 168.89 9.58459 168.901 9.60688C169.012 10.0304 168.767 10.4762 168.344 10.5988L148.461 16.0932C148.038 16.2158 147.592 15.9595 147.48 15.536L145.998 10.1753L143.769 10.7882C142.755 11.0669 141.718 10.922 140.86 10.4539C140.838 10.4428 140.816 10.4316 140.805 10.4205C139.935 9.93009 139.244 9.10537 138.954 8.05775L136.714 0.0111473ZM153.877 0.0111473L156.229 8.52583C156.352 8.94934 156.786 9.20566 157.221 9.08307C157.644 8.96048 157.901 8.52584 157.778 8.09119L155.549 0.0111473H153.877ZM158.859 0.0111473L160.854 7.24417C160.977 7.66768 161.411 7.92401 161.846 7.80142C162.27 7.68997 162.526 7.24417 162.403 6.80952L160.52 0H158.859V0.0111473Z" fill="white" fill-opacity="0.3"/>
<path fill-rule="evenodd" clip-rule="evenodd" d="M81.7254 0.0111473C82.082 1.59372 82.4052 3.09828 82.6727 4.45795C83.7872 10.0861 84.155 12.8389 84.2776 14.0983L87.9108 13.6525L91.5552 13.1955C91.3657 11.9473 91.0425 9.18338 90.7527 3.45491C90.697 2.39615 90.6524 1.22594 90.6078 0.0111473H92.2127C92.2573 1.20365 92.3019 2.32928 92.3464 3.36575C92.77 11.4569 93.1823 13.3516 93.2492 13.6079C93.2715 13.6636 93.2826 13.7193 93.2938 13.7862C93.3495 14.232 93.0374 14.6221 92.6028 14.6778L88.1225 15.2351L83.6423 15.7923C83.5977 15.7923 83.542 15.8034 83.4974 15.7923C83.0516 15.77 82.7173 15.3799 82.7507 14.9453C82.7507 14.9453 82.8287 13.4073 81.1236 4.75886C80.8338 3.32117 80.4883 1.69402 80.1094 0H81.7254V0.0111473Z" fill="white" fill-opacity="0.3"/>
<path fill-rule="evenodd" clip-rule="evenodd" d="M83.7872 114.19L77.1337 115.015C77.8581 117.79 80.1205 126.55 81.7254 133.75H80.0871C78.2482 125.547 75.6068 115.505 75.3728 114.603C75.3505 114.547 75.3394 114.491 75.3282 114.436C75.2725 114.001 75.5845 113.6 76.0192 113.544L83.5754 112.608L91.1317 111.672C91.1651 111.672 91.1985 111.672 91.232 111.672C91.6778 111.672 92.0344 112.039 92.0232 112.474C92.0232 112.519 91.8895 124.778 92.1793 133.772H90.5744C90.3404 126.227 90.385 116.386 90.4184 113.388L83.7872 114.19Z" fill="white" fill-opacity="0.3"/>
<path fill-rule="evenodd" clip-rule="evenodd" d="M205.055 0.0112305L207.919 12.9059C208.019 13.3405 207.741 13.764 207.306 13.8643C206.871 13.9646 206.448 13.686 206.348 13.2513L203.405 0.0112305H205.055V0.0112305ZM202.692 0.0112305C202.792 0.300997 202.859 0.601904 202.904 0.902816C202.948 1.22602 202.781 1.53807 202.514 1.6941C201.89 2.06188 201.187 2.26249 200.463 2.29593C199.761 2.31822 199.048 2.18448 198.379 1.85014C197.71 1.51579 197.164 1.03656 196.752 0.468166C196.651 0.323283 196.551 0.167259 196.473 0.0112305H198.479C198.658 0.167259 198.858 0.300998 199.081 0.412447C199.505 0.6242 199.961 0.713359 200.396 0.691069C200.664 0.679924 200.931 0.635339 201.187 0.54618C201.121 0.356717 201.043 0.178404 200.931 0.0112305H202.692ZM209.468 0.0112305H205.757C205.779 0.0892446 205.801 0.178405 205.824 0.256419C205.924 0.568476 206.203 0.780229 206.515 0.813663C207.228 0.880532 207.964 0.769083 208.632 0.490461C208.922 0.356722 209.201 0.200693 209.468 0.0112305ZM197.643 3.51072C197.376 3.66675 197.22 3.96766 197.253 4.30201C197.342 5.01528 197.61 5.70626 198.022 6.29694C198.435 6.86533 198.981 7.3557 199.649 7.6789C200.318 8.01325 201.031 8.14699 201.734 8.1247C202.458 8.10241 203.171 7.89066 203.784 7.52288C204.052 7.36685 204.219 7.05479 204.174 6.73159C204.085 6.01832 203.818 5.32734 203.394 4.73666C202.993 4.16827 202.436 3.6779 201.767 3.35469C201.098 3.02035 200.385 2.88661 199.683 2.9089C198.981 2.93119 198.267 3.14294 197.643 3.51072ZM199.761 4.51376C200.196 4.50262 200.652 4.59178 201.076 4.79239C201.499 5.00414 201.845 5.30505 202.101 5.66168C202.257 5.88458 202.38 6.12977 202.469 6.37496C202.213 6.46411 201.945 6.50869 201.678 6.51984C201.232 6.54213 200.786 6.44182 200.363 6.24121C199.939 6.02946 199.583 5.72855 199.337 5.37192C199.181 5.14902 199.059 4.90383 198.97 4.65864C199.226 4.56948 199.493 4.51376 199.761 4.51376ZM210.973 1.99502C210.705 2.02845 210.449 2.09532 210.192 2.19563C209.791 2.3628 209.412 2.64142 209.123 3.0092C208.822 3.37698 208.632 3.80049 208.554 4.23514C208.51 4.50262 208.498 4.77009 208.521 5.03757C208.788 5.00413 209.045 4.93726 209.301 4.83696C209.713 4.66978 210.081 4.39117 210.382 4.02339C210.683 3.6556 210.861 3.2321 210.95 2.79745C210.984 2.52997 210.995 2.26249 210.973 1.99502ZM209.568 0.724502C208.922 0.991979 208.331 1.42663 207.863 2.00617C207.395 2.5857 207.105 3.25439 206.972 3.94537C206.838 4.65864 206.894 5.3942 207.117 6.08519C207.217 6.39724 207.495 6.60899 207.796 6.63128C208.51 6.69815 209.245 6.58671 209.914 6.30809C210.56 6.04061 211.151 5.60596 211.619 5.01528C212.087 4.43575 212.377 3.76706 212.511 3.07607C212.644 2.3628 212.589 1.62723 212.366 0.936249C212.265 0.624192 211.987 0.412442 211.686 0.390152C210.973 0.323283 210.237 0.434735 209.568 0.724502Z" fill="white" fill-opacity="0.3"/>
<path fill-rule="evenodd" clip-rule="evenodd" d="M52.8378 104.695L50.2076 117.634C50.1184 118.069 49.6949 118.347 49.2602 118.258C48.8256 118.169 48.547 117.746 48.6361 117.311L51.3332 104.015L53.0049 95.7901C52.6483 95.3443 52.3697 94.8428 52.2025 94.2856C52.0019 93.6169 51.9573 92.8813 52.1022 92.1569C52.2471 91.4214 52.5814 90.775 53.0272 90.2289C53.395 89.7942 53.8519 89.4264 54.3535 89.1589L55.2562 84.701C55.3453 84.2663 55.7689 83.9877 56.2035 84.0769C56.6382 84.166 56.9168 84.5895 56.8276 85.0242L55.9249 89.4821C56.2815 89.9279 56.5601 90.4295 56.7273 90.9867C56.9279 91.6554 56.9725 92.391 56.8276 93.1154C56.6716 93.8509 56.3484 94.4973 55.9026 95.0434C55.5348 95.4892 55.0779 95.8459 54.5764 96.1134L52.8378 104.695ZM53.473 104.974C53.4619 105.063 53.4507 105.141 53.4396 105.23C53.4061 105.553 53.5733 105.865 53.8408 106.01C54.4649 106.367 55.1782 106.556 55.9026 106.578C56.2258 106.578 56.5378 106.556 56.8611 106.489C57.24 106.411 57.6189 106.277 57.9755 106.088C58.6442 105.743 59.1792 105.252 59.5804 104.673C59.9928 104.071 60.2491 103.38 60.316 102.667C60.3494 102.343 60.1822 102.031 59.9147 101.886C59.2906 101.53 58.5774 101.34 57.8529 101.329C57.1508 101.318 56.4375 101.474 55.78 101.808C55.1113 102.154 54.5764 102.644 54.1751 103.224C53.8185 103.748 53.5733 104.349 53.473 104.974ZM49.0708 103.012C49.0596 102.945 49.0485 102.878 49.0373 102.811C48.9482 102.377 48.7587 101.964 48.4467 101.597C48.1458 101.24 47.778 100.973 47.3768 100.816L47.3545 100.805C47.1093 100.705 46.8418 100.638 46.5743 100.616C46.552 100.883 46.5632 101.151 46.6189 101.418C46.6635 101.619 46.7192 101.82 46.8195 102.02C46.9198 102.232 47.0536 102.444 47.2096 102.633C47.5105 103.001 47.8894 103.268 48.3018 103.424C48.547 103.525 48.8144 103.592 49.0819 103.614C49.0931 103.413 49.0931 103.213 49.0708 103.012ZM44.9806 101.195C44.9918 101.374 45.014 101.552 45.0475 101.73C45.1924 102.421 45.4933 103.079 45.9725 103.658C46.4517 104.238 47.0424 104.65 47.7 104.918C48.3687 105.185 49.1042 105.286 49.8175 105.208C50.1295 105.174 50.397 104.962 50.4973 104.639C50.5865 104.349 50.6422 104.037 50.6756 103.736C50.7091 103.324 50.6868 102.912 50.6088 102.499C50.475 101.808 50.163 101.151 49.6837 100.571C49.2157 100.003 48.625 99.5905 47.9786 99.3231L47.9563 99.3119C47.2876 99.0444 46.552 98.9442 45.8388 99.0222C45.5267 99.0556 45.2592 99.2674 45.1589 99.5794C44.9918 100.114 44.936 100.66 44.9806 101.195ZM48.0789 93.1934L50.0181 83.6534C50.1073 83.2187 49.8286 82.7952 49.394 82.7061C48.9593 82.6169 48.5358 82.8955 48.4467 83.3302L46.318 93.8064C46.1285 94.475 46.0951 95.1883 46.24 95.8793C46.3737 96.5703 46.6858 97.2278 47.165 97.8074C47.6442 98.3869 48.2349 98.7993 48.8925 99.0667C49.5612 99.3342 50.2967 99.4345 51.01 99.3565C51.322 99.3231 51.5895 99.1113 51.6898 98.7993C51.9016 98.1083 51.935 97.3727 51.7901 96.6594C51.6564 95.9685 51.3443 95.3109 50.8651 94.7314C50.3859 94.1518 49.7952 93.7395 49.1377 93.472C48.7922 93.3271 48.4467 93.238 48.0789 93.1934ZM48.547 94.9431C48.3018 94.8428 48.0343 94.776 47.7668 94.7537C47.7445 95.0212 47.7557 95.2886 47.8114 95.5561C47.9006 95.9908 48.09 96.4143 48.4021 96.7709C48.703 97.1387 49.0819 97.4061 49.4831 97.5622C49.7395 97.6625 49.9958 97.7294 50.2633 97.7517C50.2856 97.4842 50.2744 97.2167 50.2187 96.9492C50.1295 96.5146 49.9401 96.1022 49.6392 95.7344C49.3271 95.3778 48.9482 95.1103 48.547 94.9431ZM59.8033 97.2055C59.547 97.1164 59.2795 97.0718 59.012 97.0718C58.5662 97.0607 58.1204 97.161 57.6969 97.3839C57.2734 97.5956 56.9279 97.9077 56.6827 98.2754C56.5267 98.4983 56.4153 98.7435 56.3372 98.9999C56.5936 99.0779 56.8611 99.1225 57.1285 99.1336C57.5743 99.1447 58.0201 99.0444 58.4436 98.8327C58.8671 98.6098 59.2126 98.3089 59.4578 97.9411C59.6027 97.7071 59.7141 97.4619 59.8033 97.2055ZM59.0455 95.4781C58.3433 95.4669 57.63 95.623 56.9614 95.9573C56.3038 96.3028 55.7577 96.7932 55.3676 97.3727C54.9553 97.9745 54.6989 98.6655 54.6321 99.3788C54.5986 99.702 54.7658 100.014 55.0333 100.159C55.6574 100.516 56.3707 100.705 57.0951 100.727C57.7972 100.738 58.5105 100.582 59.1792 100.248C59.8479 99.9026 60.3828 99.4122 60.784 98.8327C61.1741 98.2532 61.4305 97.5956 61.5085 96.9046L63.6371 86.4284C63.7263 85.9938 63.4477 85.5703 63.013 85.4811C62.5784 85.392 62.1549 85.6706 62.0657 86.1052L60.1265 95.6341C59.7699 95.5338 59.4132 95.4781 59.0455 95.4781ZM58.6108 103.057C58.3545 102.979 58.087 102.934 57.8195 102.923C57.3737 102.912 56.9279 103.012 56.5044 103.235C56.0809 103.458 55.7354 103.759 55.4902 104.127C55.3342 104.349 55.2228 104.595 55.1447 104.851C55.4011 104.929 55.6686 104.985 55.936 104.985C56.3818 104.996 56.8276 104.896 57.2511 104.684C57.6746 104.461 58.0201 104.16 58.2653 103.792C58.4102 103.558 58.5328 103.313 58.6108 103.057ZM55.1893 91.4548C55.1113 91.1985 54.9999 90.9533 54.8438 90.7304C54.6209 90.8753 54.4203 91.0536 54.2531 91.2653C53.9745 91.5997 53.7628 92.0232 53.6736 92.4801C53.5733 92.9482 53.6067 93.4051 53.7293 93.8286C53.8074 94.085 53.9188 94.3302 54.0637 94.5531C54.2866 94.4082 54.4872 94.2299 54.6655 94.0181C54.9441 93.6838 55.1559 93.2603 55.245 92.8033C55.3454 92.3464 55.3231 91.8783 55.1893 91.4548ZM44.6463 104.873C44.3342 104.907 44.0667 105.118 43.9664 105.442C43.7547 106.133 43.7212 106.868 43.8661 107.581C43.9999 108.272 44.3119 108.93 44.7911 109.509C45.2704 110.078 45.8611 110.501 46.5186 110.769C47.1984 111.036 47.9229 111.137 48.6361 111.059C48.937 111.025 49.2157 110.813 49.3048 110.501C49.5166 109.81 49.55 109.075 49.4051 108.362C49.2714 107.671 48.9593 107.013 48.4801 106.434C48.0009 105.854 47.399 105.442 46.7526 105.174C46.084 104.896 45.3595 104.795 44.6463 104.873ZM46.1731 106.645C46.5855 106.812 46.9644 107.08 47.2653 107.437C47.5662 107.804 47.7668 108.217 47.8448 108.651C47.9006 108.919 47.9117 109.186 47.8894 109.454C47.6219 109.431 47.3545 109.365 47.1093 109.264C46.6969 109.097 46.318 108.83 46.0171 108.473C45.7162 108.105 45.5156 107.693 45.4264 107.258C45.3707 106.991 45.3595 106.723 45.3818 106.456C45.6604 106.489 45.9168 106.545 46.1731 106.645ZM57.4294 108.908C57.1731 108.819 56.9056 108.774 56.6382 108.774C56.1924 108.763 55.7466 108.863 55.3231 109.075C54.8996 109.298 54.5541 109.599 54.3089 109.966C54.1528 110.189 54.0414 110.435 53.9522 110.691C54.2086 110.769 54.476 110.825 54.7435 110.825C55.1893 110.836 55.6351 110.735 56.0586 110.513C56.4821 110.29 56.8276 109.989 57.0728 109.621C57.2288 109.409 57.3403 109.164 57.4294 108.908ZM56.6716 107.169C55.9695 107.158 55.2562 107.314 54.5875 107.648C53.9188 107.994 53.3838 108.484 52.9826 109.064C52.5703 109.666 52.3139 110.357 52.2471 111.07C52.2136 111.393 52.3808 111.694 52.6483 111.85C53.2724 112.207 53.9857 112.396 54.7101 112.418C55.4122 112.429 56.1255 112.273 56.7942 111.928C57.4629 111.582 57.9978 111.092 58.399 110.513C58.8114 109.911 59.0677 109.22 59.1346 108.506C59.168 108.183 59.0009 107.882 58.7334 107.726C58.1093 107.381 57.396 107.191 56.6716 107.169Z" fill="white" fill-opacity="0.3"/>
<path fill-rule="evenodd" clip-rule="evenodd" d="M265.716 39.2411L255.675 47.8227C255.34 48.1124 254.828 48.0679 254.538 47.7335C254.248 47.3992 254.293 46.8865 254.627 46.6079L264.936 37.7923L267.488 35.6079V37.7254L265.716 39.2411ZM266.039 39.8541C265.972 39.9098 265.917 39.9767 265.861 40.0324C265.627 40.2664 265.582 40.6119 265.694 40.9017C265.972 41.5704 266.407 42.1611 266.976 42.618C267.143 42.7518 267.31 42.8744 267.488 42.9858V40.8683L267.432 40.7903L267.488 40.7568V38.9848C266.953 39.1631 266.463 39.464 266.039 39.8541ZM263.777 35.5967C263.81 35.541 263.844 35.4741 263.877 35.4184C264.078 35.0284 264.178 34.5714 264.167 34.1033C264.156 33.6353 264.022 33.2006 263.81 32.8328L263.799 32.8105C263.666 32.5765 263.498 32.3647 263.298 32.1864C263.119 32.3759 262.963 32.6099 262.841 32.844C262.752 33.0334 262.674 33.234 262.629 33.4346C262.573 33.6687 262.551 33.9027 262.551 34.159C262.562 34.6271 262.696 35.0729 262.919 35.463C263.053 35.6971 263.22 35.9088 263.42 36.0871C263.554 35.9311 263.677 35.7639 263.777 35.5967ZM261.671 31.6514C261.57 31.7963 261.481 31.9524 261.403 32.1195C261.091 32.7437 260.924 33.4569 260.946 34.2036C260.968 34.9503 261.18 35.6525 261.537 36.2543C261.905 36.8784 262.417 37.4134 263.03 37.7923C263.298 37.9483 263.643 37.9483 263.911 37.7589C264.167 37.5805 264.39 37.3799 264.602 37.157C264.88 36.8561 265.125 36.5106 265.304 36.1428C265.616 35.5187 265.783 34.8055 265.761 34.0587C265.738 33.3232 265.527 32.6322 265.181 32.0304L265.17 32.0081C264.802 31.384 264.29 30.8602 263.677 30.4812C263.409 30.3141 263.064 30.3141 262.796 30.5035C262.362 30.8044 261.971 31.1945 261.671 31.6514ZM267.488 33.8581C266.909 33.4904 266.418 32.9777 266.073 32.3759C265.716 31.7629 265.504 31.0719 265.482 30.3252C265.46 29.5785 265.627 28.8652 265.939 28.2411C266.251 27.617 266.719 27.0709 267.276 26.6585L267.488 26.4802V28.7426C267.444 28.8095 267.41 28.8875 267.366 28.9544C267.165 29.3445 267.065 29.8014 267.076 30.2695C267.087 30.7487 267.221 31.1834 267.444 31.5623L267.488 31.6292V33.8581V33.8581ZM259.141 34.3374C258.873 34.1813 258.528 34.1813 258.26 34.3708C257.67 34.7832 257.19 35.3404 256.867 35.998C256.555 36.6221 256.388 37.3353 256.41 38.082C256.432 38.8288 256.644 39.5309 257.001 40.1327C257.369 40.7568 257.881 41.2918 258.494 41.6596C258.762 41.8156 259.107 41.8156 259.375 41.6261C259.965 41.2138 260.445 40.6565 260.768 39.999C261.08 39.3749 261.247 38.6616 261.225 37.9149C261.202 37.1682 260.991 36.466 260.634 35.8642C260.277 35.2401 259.754 34.7163 259.141 34.3374ZM259.252 36.6778C259.118 36.4438 258.951 36.232 258.751 36.0537C258.572 36.2432 258.416 36.466 258.294 36.7112C258.093 37.1013 257.993 37.5582 258.004 38.0263C258.015 38.4944 258.149 38.9402 258.372 39.3191C258.505 39.5532 258.673 39.7649 258.873 39.9432C259.052 39.7426 259.208 39.5309 259.33 39.2857C259.531 38.8956 259.631 38.4387 259.62 37.9706C259.609 37.5025 259.475 37.0567 259.252 36.6778ZM266.741 45.3819C266.597 45.1591 266.407 44.9584 266.195 44.7913C265.85 44.5126 265.438 44.312 264.969 44.2229C264.501 44.1337 264.044 44.1672 263.621 44.3009C263.365 44.3789 263.119 44.5015 262.897 44.6575C263.041 44.8804 263.231 45.081 263.431 45.2482C263.777 45.5268 264.189 45.7274 264.657 45.8166C265.125 45.9058 265.582 45.8723 266.006 45.7386C266.273 45.6606 266.519 45.538 266.741 45.3819ZM267.21 43.5542C266.663 43.1084 266.006 42.7963 265.27 42.6515C264.535 42.5177 263.81 42.5623 263.142 42.7852C262.451 43.0081 261.827 43.3982 261.325 43.9108C261.091 44.1449 261.046 44.4904 261.158 44.769C261.437 45.4377 261.871 46.0284 262.44 46.4853C262.986 46.9311 263.643 47.2431 264.379 47.388C265.114 47.5218 265.839 47.466 266.507 47.2543C266.853 47.1428 267.187 46.9868 267.499 46.7974V43.7994C267.399 43.7214 267.299 43.6322 267.21 43.5542Z" fill="white" fill-opacity="0.3"/>
<path fill-rule="evenodd" clip-rule="evenodd" d="M0.0111449 35.6079L3.84498 32.3313C3.83384 31.7629 3.93414 31.1833 4.13475 30.6484C4.39108 29.9908 4.80344 29.389 5.37183 28.9098C5.94022 28.4306 6.59777 28.1073 7.28875 27.9625C7.846 27.8399 8.42553 27.8287 8.99392 27.9402L12.4488 24.9868C12.7832 24.697 13.2958 24.7416 13.5856 25.0759C13.8754 25.4103 13.8308 25.9229 13.4965 26.2016L10.0415 29.155C10.0527 29.7234 9.95238 30.3029 9.75177 30.8378C9.49544 31.4954 9.08308 32.0972 8.51469 32.5764C7.9463 33.0557 7.28875 33.3789 6.59777 33.5238C6.04053 33.6464 5.44985 33.6575 4.8926 33.5572L0.0111449 37.7142V35.6079ZM0.0111449 46.8085V43.8105C0.43465 44.2228 0.780142 44.7244 1.00304 45.2705C1.11449 45.5602 1.06991 45.8946 0.835866 46.1286C0.590679 46.385 0.312057 46.619 0.0111449 46.8085ZM0.0111449 42.9746V40.8571C0.156028 41.0466 0.312057 41.2249 0.50152 41.3698C0.847011 41.6484 1.25937 41.849 1.72746 41.9382C2.19554 42.0273 2.65248 41.9939 3.07599 41.8601C3.33232 41.7821 3.57751 41.6595 3.8004 41.5035C3.65552 41.2806 3.46606 41.08 3.25431 40.9128C2.90881 40.6342 2.49645 40.4336 2.02837 40.3444C1.56028 40.2553 1.10334 40.2887 0.679838 40.4224C0.445795 40.5005 0.211753 40.6008 0.0111449 40.7456V38.9736C0.0668693 38.9513 0.133739 38.929 0.189463 38.9067C0.858156 38.695 1.58257 38.6393 2.31813 38.773C3.0537 38.9067 3.71124 39.2299 4.25734 39.6757C4.81459 40.1327 5.26038 40.7234 5.53901 41.392C5.6616 41.6818 5.60587 42.0162 5.37183 42.2613C4.87031 42.774 4.2462 43.1641 3.55522 43.387C2.88652 43.5987 2.16211 43.6545 1.42654 43.5207C1.02533 43.4427 0.646403 43.3201 0.300912 43.1418C0.200608 43.0861 0.111449 43.0303 0.0111449 42.9746ZM0.0111449 33.8581L0.089159 33.9027C0.356636 34.0699 0.702127 34.0699 0.969605 33.8804C1.56028 33.468 2.03951 32.9108 2.36271 32.2533C2.67477 31.6291 2.84194 30.9159 2.81965 30.1692C2.79736 29.4225 2.58561 28.7203 2.22898 28.1185C2.03951 27.8064 1.81662 27.5167 1.57143 27.2492L8.97163 20.93C9.30598 20.6403 9.35055 20.1388 9.06079 19.7933C8.77102 19.4589 8.2695 19.4143 7.92401 19.7041L0.0111449 26.4691V28.7315C0.111449 28.5754 0.222898 28.4194 0.345491 28.2857C0.546099 28.464 0.713272 28.6757 0.847011 28.9098C1.06991 29.2887 1.20365 29.7345 1.21479 30.2137C1.22594 30.6818 1.12563 31.1388 0.925025 31.5288C0.802431 31.774 0.646403 31.9858 0.468085 32.1864C0.289767 32.0192 0.133739 31.8297 0 31.6291V33.8581H0.0111449ZM8.33637 37.6251C8.19149 37.4022 8.00202 37.2016 7.79027 37.0344C7.44478 36.7558 7.03242 36.5552 6.56433 36.466C6.09625 36.3769 5.63931 36.4103 5.2158 36.544C4.95947 36.622 4.71428 36.7446 4.49139 36.9007C4.64742 37.1236 4.82573 37.3242 5.03749 37.4913C5.38298 37.77 5.79534 37.9706 6.26342 38.0597C6.73151 38.1489 7.18845 38.1155 7.61195 37.9817C7.86829 37.8926 8.11347 37.7811 8.33637 37.6251ZM8.80446 35.7973C8.25836 35.3515 7.60081 35.0395 6.86525 34.8946C6.12968 34.7497 5.40527 34.8054 4.73657 35.0283C4.04559 35.2512 3.42148 35.6413 2.91996 36.154C2.68592 36.388 2.64134 36.7335 2.75279 37.0233C3.03141 37.692 3.46606 38.2826 4.03445 38.7396C4.58055 39.1854 5.23809 39.4974 5.97366 39.6423C6.70922 39.776 7.43364 39.7315 8.10233 39.5086C8.77102 39.2968 9.37284 38.929 9.86322 38.4387L17.9878 31.4954C18.3222 31.2056 18.3668 30.7041 18.077 30.3698C17.7872 30.0354 17.2857 29.9908 16.9402 30.2806L9.54002 36.5997C9.33941 36.2877 9.08308 36.0314 8.80446 35.7973ZM8.23607 30.2583C8.33637 30.002 8.39209 29.7456 8.41438 29.4782C8.14691 29.4559 7.87943 29.4782 7.61195 29.5339C7.1773 29.6342 6.76494 29.8237 6.39716 30.1357C6.02938 30.4478 5.77305 30.8267 5.61702 31.2391C5.51672 31.4954 5.46099 31.7517 5.4387 32.0192C5.70618 32.0415 5.97366 32.0192 6.24113 31.9635C6.67578 31.8743 7.08814 31.6737 7.45592 31.3617C7.82371 31.0496 8.08004 30.6707 8.23607 30.2583Z" fill="white" fill-opacity="0.3"/>
<path fill-rule="evenodd" clip-rule="evenodd" d="M200.129 118.96L199.137 114.514C199.036 114.079 199.315 113.655 199.75 113.555C200.184 113.455 200.608 113.733 200.708 114.168L201.7 118.604C202.213 118.86 202.67 119.217 203.049 119.651C203.505 120.186 203.851 120.833 204.007 121.557C204.174 122.282 204.141 123.017 203.94 123.686C203.784 124.243 203.517 124.756 203.16 125.202L205.055 133.739H203.416L201.6 125.547C201.087 125.291 200.63 124.934 200.251 124.499C199.794 123.964 199.449 123.318 199.293 122.594C199.126 121.858 199.159 121.134 199.36 120.454C199.504 119.919 199.772 119.406 200.129 118.96ZM209.468 133.75H205.757C205.601 133.137 205.567 132.49 205.69 131.855C205.812 131.164 206.113 130.495 206.581 129.916C207.05 129.336 207.64 128.902 208.287 128.623C208.955 128.344 209.68 128.233 210.404 128.3C210.716 128.333 210.995 128.534 211.095 128.846C211.318 129.537 211.363 130.272 211.24 130.986C211.117 131.677 210.817 132.345 210.348 132.925C210.081 133.248 209.78 133.527 209.468 133.75ZM202.692 133.75C202.558 133.36 202.369 132.992 202.124 132.646C201.722 132.078 201.165 131.588 200.496 131.264C199.839 130.941 199.126 130.796 198.435 130.819H198.412C197.688 130.852 196.975 131.053 196.362 131.42C196.094 131.576 195.927 131.888 195.972 132.212C196.038 132.747 196.206 133.27 196.462 133.75H198.468C198.312 133.605 198.167 133.449 198.045 133.282C197.888 133.059 197.766 132.825 197.677 132.568C197.933 132.479 198.201 132.435 198.468 132.423H198.49C198.925 132.412 199.371 132.501 199.783 132.702C200.207 132.914 200.563 133.215 200.808 133.571C200.853 133.627 200.886 133.683 200.92 133.75H202.692ZM196.038 125.168L193.932 115.673C193.832 115.238 193.408 114.971 192.974 115.06C192.539 115.16 192.271 115.583 192.361 116.018L194.679 126.45C194.779 127.141 195.035 127.798 195.448 128.367C195.849 128.935 196.406 129.425 197.075 129.749C197.744 130.083 198.457 130.217 199.17 130.194C199.895 130.161 200.597 129.96 201.221 129.593C201.488 129.437 201.655 129.136 201.611 128.801C201.522 128.088 201.254 127.397 200.842 126.806C200.43 126.238 199.883 125.748 199.215 125.424C198.546 125.09 197.822 124.956 197.131 124.979C196.752 125.012 196.384 125.068 196.038 125.168ZM197.175 126.595C196.908 126.606 196.64 126.65 196.384 126.74C196.473 126.996 196.596 127.241 196.752 127.453C197.008 127.809 197.354 128.121 197.777 128.333C198.201 128.545 198.657 128.634 199.092 128.612C199.36 128.601 199.627 128.556 199.883 128.467C199.794 128.211 199.672 127.977 199.516 127.754C199.259 127.397 198.914 127.096 198.49 126.884C198.067 126.662 197.621 126.572 197.175 126.595ZM208.376 124.076C208.108 124.098 207.841 124.165 207.596 124.276C207.194 124.444 206.816 124.722 206.526 125.09C206.225 125.458 206.047 125.881 205.957 126.316C205.913 126.583 205.902 126.851 205.935 127.118C206.203 127.096 206.459 127.018 206.715 126.918C207.116 126.751 207.495 126.472 207.785 126.104C208.086 125.736 208.276 125.313 208.354 124.878C208.398 124.611 208.409 124.343 208.376 124.076ZM206.983 122.805C206.336 123.084 205.746 123.508 205.278 124.098C204.809 124.678 204.52 125.346 204.397 126.037C204.263 126.751 204.319 127.486 204.542 128.177C204.642 128.489 204.921 128.701 205.222 128.723C205.935 128.79 206.671 128.679 207.339 128.4C207.986 128.121 208.576 127.698 209.044 127.107C209.513 126.528 209.802 125.859 209.925 125.168C210.048 124.477 210.014 123.775 209.802 123.106L207.484 112.664C207.384 112.229 206.96 111.961 206.526 112.051C206.091 112.151 205.824 112.574 205.913 113.009L208.019 122.504C207.674 122.56 207.317 122.66 206.983 122.805ZM209.669 129.905C209.401 129.927 209.145 130.005 208.888 130.105C208.476 130.272 208.108 130.551 207.807 130.919C207.507 131.287 207.328 131.71 207.239 132.145C207.194 132.412 207.183 132.68 207.217 132.947C207.484 132.925 207.741 132.847 207.997 132.747C208.409 132.579 208.777 132.301 209.067 131.933C209.368 131.565 209.557 131.142 209.635 130.707C209.691 130.44 209.702 130.172 209.669 129.905ZM201.834 120.699C201.655 120.498 201.455 120.32 201.232 120.175C201.087 120.398 200.976 120.643 200.909 120.911C200.786 121.334 200.764 121.791 200.875 122.259C200.976 122.727 201.187 123.14 201.477 123.463C201.655 123.664 201.856 123.842 202.079 123.987C202.224 123.764 202.335 123.519 202.413 123.251C202.536 122.828 202.558 122.371 202.447 121.903C202.335 121.446 202.112 121.033 201.834 120.699Z" fill="white" fill-opacity="0.3"/>
<path fill-rule="evenodd" clip-rule="evenodd" d="M127.843 43.9555L129.726 44.8248L130.228 43.7326L128.344 42.8633L127.843 43.9555ZM131.911 45.8278C132.312 46.0173 132.49 46.4854 132.301 46.8977C132.111 47.299 131.632 47.4773 131.231 47.2878L130.986 47.1764C130.462 48.2797 129.381 50.5867 128.01 53.5624C127.564 54.532 127.821 56.2929 128.155 58.6333C128.222 59.0902 128.289 59.5472 128.333 59.8481C128.567 61.4975 128.467 62.9798 127.843 65.075C127.241 67.0923 126.138 69.689 124.332 73.612L118.381 86.5178C118.191 86.919 117.712 87.0973 117.311 86.9079L110.591 83.7984L103.87 80.689C103.469 80.4996 103.291 80.0315 103.48 79.6303L109.443 66.7245C111.248 62.8015 112.508 60.2827 113.655 58.5107C114.848 56.6718 115.918 55.6465 117.322 54.7437C117.567 54.5877 117.969 54.3314 118.359 54.0862C120.354 52.8268 121.858 51.8795 122.315 50.9099C123.686 47.9454 124.733 45.6272 125.246 44.5016L125.001 44.3901C124.6 44.2007 124.421 43.7326 124.611 43.3202C124.8 42.919 125.28 42.7407 125.681 42.9302L126.416 43.2645L127.252 41.4479C127.442 41.0467 127.921 40.8684 128.322 41.0578L131.654 42.5958C132.056 42.7853 132.234 43.2534 132.045 43.6546L131.209 45.4712L131.911 45.8278ZM126.684 45.1814C125.959 46.764 124.288 50.453 123.764 51.5897C123.117 52.9828 121.435 54.0416 119.206 55.4459C118.927 55.613 118.637 55.8025 118.18 56.0923C116.977 56.8613 116.04 57.764 114.993 59.38C113.901 61.0629 112.675 63.5259 110.892 67.3932L105.275 79.5634L111.27 82.3273L117.266 85.0913L122.883 72.921C124.667 69.0538 125.748 66.5239 126.316 64.5958C126.862 62.7458 126.94 61.4641 126.751 60.0487C126.673 59.5026 126.628 59.1683 126.584 58.8451C126.205 56.2372 125.915 54.2757 126.561 52.8714C127.085 51.7458 128.801 48.068 129.537 46.4965L126.684 45.1814Z" fill="white" fill-opacity="0.3"/>
<path fill-rule="evenodd" clip-rule="evenodd" d="M255.775 77.2339L254.159 78.5156L253.412 77.5794L255.039 76.2978L255.775 77.2339ZM252.264 80.0202C251.919 80.2988 251.863 80.8003 252.131 81.1458C252.409 81.4913 252.911 81.547 253.256 81.2795L253.468 81.1124C254.237 82.0708 255.831 84.0546 257.859 86.6179C258.528 87.4538 258.695 89.2258 258.907 91.5774C258.951 92.0343 258.996 92.5024 259.029 92.7922C259.196 94.4528 259.631 95.8682 260.734 97.7628C261.793 99.5794 263.476 101.842 266.162 105.23L267.488 106.902V104.316L267.421 104.227C264.78 100.883 263.131 98.6767 262.128 96.9492C261.158 95.2886 260.779 94.0516 260.634 92.625C260.578 92.0789 260.545 91.7334 260.523 91.4102C260.278 88.7912 260.088 86.8074 259.141 85.6037C258.372 84.6341 255.831 81.469 254.739 80.1093L257.213 78.1478C258.283 79.5186 260.79 82.7172 261.559 83.6868C262.518 84.8905 264.401 85.5257 266.898 86.3616L267.511 86.5622V84.8793L267.41 84.8459C265.181 84.0992 263.487 83.5308 262.819 82.6838C260.79 80.1205 259.219 78.1144 258.461 77.1559L258.673 76.9887C259.018 76.7101 259.074 76.2086 258.806 75.8631C258.528 75.5176 258.026 75.4619 257.681 75.7294L257.046 76.2309L255.786 74.6706C255.508 74.3251 255.006 74.2694 254.661 74.5369L251.785 76.8216C251.44 77.1002 251.384 77.6017 251.651 77.9472L252.9 79.5186L252.264 80.0202Z" fill="white" fill-opacity="0.3"/>
<path fill-rule="evenodd" clip-rule="evenodd" d="M0.0112305 106.902V104.316L8.26959 114.736L13.452 110.635L18.6232 106.534L10.298 96.0241C7.65662 92.6807 5.88458 90.5743 4.4246 89.2034C3.03149 87.8772 1.91701 87.2308 0.55733 86.7627L0.0112305 86.5733V84.8904C0.412446 85.0241 0.813662 85.1579 1.06999 85.247C2.65257 85.7931 3.93423 86.5398 5.5168 88.0444C7.04365 89.4932 8.86027 91.6442 11.5462 95.0322L20.3729 106.166C20.6515 106.511 20.5847 107.024 20.2392 107.292L14.4327 111.894L8.62622 116.497C8.28073 116.776 7.76807 116.709 7.50059 116.364L0.0112305 106.902Z" fill="white" fill-opacity="0.3"/>
<path fill-rule="evenodd" clip-rule="evenodd" d="M146.187 71.5613C146.466 71.3272 146.878 71.3718 147.112 71.6504C147.346 71.929 147.302 72.3414 147.023 72.5754C146.745 72.8095 146.332 72.7649 146.098 72.4863C145.864 72.2077 145.909 71.7842 146.187 71.5613ZM165.747 85.3475C166.025 85.1134 166.438 85.158 166.672 85.4366C166.906 85.7153 166.861 86.1276 166.582 86.3617C166.304 86.5957 165.892 86.5511 165.657 86.2725C165.423 85.9939 165.468 85.5704 165.747 85.3475ZM163.919 83.1185C164.197 82.8845 164.61 82.929 164.844 83.2077C165.078 83.4863 165.033 83.8987 164.755 84.1327C164.476 84.3667 164.064 84.3222 163.83 84.0435C163.596 83.7649 163.64 83.3414 163.919 83.1185ZM162.091 80.8895C162.37 80.6555 162.782 80.7001 163.016 80.9787C163.25 81.2573 163.206 81.6697 162.927 81.9037C162.648 82.1378 162.236 82.0932 162.002 81.8146C161.768 81.5359 161.812 81.1124 162.091 80.8895ZM160.263 78.6606C160.542 78.4265 160.954 78.4711 161.188 78.7497C161.422 79.0283 161.378 79.4407 161.099 79.6747C160.821 79.9088 160.408 79.8642 160.174 79.5856C159.94 79.307 159.985 78.8835 160.263 78.6606ZM163.284 87.3647C163.562 87.1307 163.975 87.1752 164.209 87.4539C164.443 87.7325 164.398 88.1449 164.119 88.3789C163.841 88.6129 163.428 88.5684 163.194 88.2897C162.96 88.0111 163.005 87.5987 163.284 87.3647ZM161.456 85.1357C161.734 84.9017 162.147 84.9463 162.381 85.2249C162.615 85.5035 162.57 85.9159 162.292 86.1499C162.013 86.384 161.601 86.3394 161.367 86.0608C161.133 85.7821 161.177 85.3698 161.456 85.1357ZM159.628 82.9068C159.907 82.6727 160.319 82.7173 160.553 82.9959C160.787 83.2745 160.743 83.6869 160.464 83.9209C160.185 84.155 159.773 84.1104 159.539 83.8318C159.305 83.5532 159.349 83.1408 159.628 82.9068ZM157.8 80.6778C158.079 80.4437 158.491 80.4883 158.725 80.7669C158.959 81.0456 158.915 81.4579 158.636 81.692C158.358 81.926 157.945 81.8814 157.711 81.6028C157.477 81.3242 157.511 80.9118 157.8 80.6778ZM160.821 89.3931C161.099 89.159 161.512 89.2036 161.746 89.4822C161.98 89.7608 161.935 90.1732 161.656 90.4073C161.378 90.6413 160.965 90.5967 160.731 90.3181C160.497 90.0283 160.542 89.616 160.821 89.3931ZM158.993 87.1641C159.271 86.9301 159.684 86.9746 159.918 87.2532C160.152 87.5319 160.107 87.9442 159.829 88.1783C159.55 88.4123 159.138 88.3677 158.904 88.0891C158.67 87.8105 158.714 87.387 158.993 87.1641ZM157.165 84.9351C157.444 84.7011 157.856 84.7456 158.09 85.0243C158.324 85.3029 158.28 85.7153 158.001 85.9493C157.722 86.1833 157.31 86.1388 157.076 85.8601C156.842 85.5704 156.886 85.158 157.165 84.9351ZM155.337 82.7062C155.616 82.4721 156.028 82.5167 156.262 82.7953C156.496 83.0739 156.452 83.4863 156.173 83.7203C155.895 83.9544 155.482 83.9098 155.248 83.6312C155.014 83.3525 155.059 82.929 155.337 82.7062ZM158.436 76.4316L158.447 76.4204L158.458 76.4093L158.469 76.3981L158.48 76.387L158.491 76.3759L158.502 76.3647L158.514 76.3536L158.525 76.3424L158.536 76.3313L158.547 76.3201H158.558H158.569L158.58 76.309H158.592H158.603H158.614H158.625H158.636H158.647H158.658H158.67H158.681H158.692H158.703H158.714H158.725H158.748H158.759H158.77H158.781H158.792H158.803H158.815H158.826H158.837H158.848H158.859H158.87H158.881H158.893H158.904H158.915H158.926L158.937 76.3201H158.948H158.959L158.971 76.3313L158.982 76.3424L158.993 76.3536L159.004 76.3647L159.015 76.3759L159.026 76.387L159.037 76.3981L159.049 76.4093L159.06 76.4204L159.071 76.4316L159.082 76.4427L159.093 76.4539L159.104 76.465L159.115 76.4762L159.127 76.4873L159.138 76.4984L159.149 76.5096L159.16 76.5207C159.394 76.7994 159.349 77.2117 159.071 77.4458C158.792 77.6798 158.38 77.6352 158.146 77.3566L158.135 77.3454L158.124 77.3343L158.112 77.3232L158.101 77.312L158.09 77.3009L158.079 77.2897L158.068 77.2786L158.057 77.2674V77.2563L158.046 77.2451V77.234L158.034 77.2229L158.023 77.2117V77.2006V77.1894V77.1783V77.1671V77.156V77.1448V77.1337V77.1226V77.1114V77.1003V77.0891V77.078V77.0668V77.0557V77.0445V77.0334V76.8997V76.8885V76.8774V76.8662V76.8551V76.8439V76.8328V76.8216V76.8105V76.7994V76.7882V76.7771V76.7659L158.034 76.7548L158.046 76.7436L158.057 76.7325V76.7213L158.068 76.7102V76.6991L158.079 76.6879L158.09 76.6768L158.101 76.6656L158.112 76.6545L158.124 76.6433L158.135 76.6322L158.146 76.621L158.157 76.6099L158.168 76.5987L158.179 76.5876L158.19 76.5765L158.202 76.5653L158.213 76.5542L158.224 76.543L158.235 76.5319L158.436 76.4316ZM156.597 74.2026C156.875 73.9686 157.288 74.0131 157.522 74.2918C157.756 74.5704 157.711 74.9827 157.433 75.2168C157.154 75.4508 156.742 75.4063 156.508 75.1276C156.273 74.849 156.318 74.4255 156.597 74.2026ZM154.769 71.9736C155.048 71.7396 155.46 71.7842 155.694 72.0628C155.928 72.3414 155.883 72.7538 155.605 72.9878C155.326 73.2219 154.914 73.1773 154.68 72.8987C154.446 72.62 154.49 72.2077 154.769 71.9736ZM152.941 69.7446C153.22 69.5106 153.632 69.5552 153.866 69.8338C154.1 70.1124 154.056 70.5248 153.777 70.7588C153.498 70.9929 153.086 70.9483 152.852 70.6697C152.618 70.3911 152.663 69.9675 152.941 69.7446ZM151.113 67.5157C151.392 67.2816 151.804 67.3262 152.038 67.6048C152.272 67.8835 152.228 68.2958 151.949 68.5299C151.671 68.7639 151.258 68.7193 151.024 68.4407C150.79 68.1621 150.835 67.7497 151.113 67.5157ZM155.961 78.4488C156.24 78.2148 156.652 78.2593 156.886 78.538L156.898 78.5491L156.909 78.5603L156.92 78.5714L156.931 78.5825L156.942 78.5937L156.953 78.6048L156.964 78.616L156.976 78.6271L156.987 78.6383L156.998 78.6494L157.009 78.6606V78.6717L157.02 78.6828L157.031 78.694L157.042 78.7051V78.7163V78.7274V78.7386V78.7497V78.7609V78.772V78.7831V78.7943V78.8054V78.8166V78.8277V78.8389V78.85V78.8723V78.8834V78.8946V78.9057V78.9169V78.928V78.9392V78.9503V78.9615V78.9726V78.9837L157.031 78.9949V79.006V79.0172V79.0283L157.02 79.0395V79.0506L157.009 79.0618L156.998 79.0729L156.987 79.0841L156.976 79.0952L156.964 79.1063L156.953 79.1175L156.942 79.1286L156.931 79.1398L156.92 79.1509L156.909 79.1621L156.898 79.1732L156.886 79.1844L156.875 79.1955L156.864 79.2067L156.853 79.2178L156.842 79.2289L156.831 79.2401L156.82 79.2512L156.808 79.2624C156.53 79.4964 156.117 79.4518 155.883 79.1732L155.872 79.1621L155.861 79.1509L155.85 79.1398L155.839 79.1286L155.828 79.1175L155.817 79.1063L155.805 79.0952L155.794 79.0841L155.783 79.0729L155.772 79.0618L155.761 79.0506L155.75 79.0395L155.739 79.0283V79.0172L155.727 79.006V78.9949V78.9837V78.9726V78.9615V78.9503V78.9392V78.928V78.9169V78.9057V78.8834V78.8723V78.8612V78.85V78.8389V78.8277V78.8166V78.8054V78.7943V78.7831V78.772V78.7609V78.7497V78.7386V78.7274V78.7163V78.7051V78.694V78.6828L155.739 78.6717L155.75 78.6606L155.761 78.6494L155.772 78.6383L155.783 78.6271L155.794 78.616L155.805 78.6048L155.817 78.5937L155.828 78.5825L155.839 78.5714L155.85 78.5603L155.861 78.5491L155.872 78.538L155.883 78.5268L155.895 78.5157L155.906 78.5045L155.917 78.4934L155.928 78.4822L155.939 78.4711L155.95 78.4599L155.961 78.4488ZM154.134 76.2198C154.412 75.9858 154.825 76.0304 155.059 76.309C155.293 76.5876 155.248 77 154.97 77.234C154.691 77.4681 154.279 77.4235 154.044 77.1448C153.822 76.8662 153.855 76.4539 154.134 76.2198ZM152.306 73.9908C152.585 73.7568 152.997 73.8014 153.231 74.08C153.465 74.3586 153.42 74.771 153.142 75.005C152.863 75.2391 152.451 75.1945 152.217 74.9159C151.983 74.6373 152.027 74.2249 152.306 73.9908ZM150.478 71.7619C150.757 71.5278 151.169 71.5724 151.403 71.851C151.637 72.1297 151.593 72.542 151.314 72.7761C151.035 73.0101 150.623 72.9655 150.389 72.6869C150.155 72.4083 150.2 71.9959 150.478 71.7619ZM148.65 69.5329C148.929 69.2989 149.341 69.3434 149.575 69.6221C149.809 69.9007 149.765 70.313 149.486 70.5471C149.208 70.7811 148.795 70.7365 148.561 70.4579C148.327 70.1793 148.372 69.7669 148.65 69.5329ZM153.51 80.4772C153.788 80.2431 154.201 80.2877 154.435 80.5663L154.446 80.5775L154.457 80.5886L154.468 80.5998L154.479 80.6109L154.49 80.622L154.501 80.6332L154.513 80.6443L154.524 80.6555L154.535 80.6666L154.546 80.6778L154.557 80.6889L154.568 80.7001L154.579 80.7112V80.7223L154.591 80.7335V80.7446L154.602 80.7558V80.7669V80.7781V80.7892V80.8004V80.8115V80.8227V80.8449V80.8561V80.8672V80.8784V80.8895V80.9007V80.9118V80.923V80.9341V80.9453V80.9564V80.9675V80.9787V80.9898V81.001V81.0121V81.0233V81.0344L154.591 81.0456L154.579 81.0567V81.0679L154.568 81.079L154.557 81.0901L154.546 81.1013L154.535 81.1124V81.1236L154.524 81.1347L154.513 81.1459L154.501 81.157L154.49 81.1682L154.479 81.1793L154.468 81.1904L154.457 81.2016L154.446 81.2127L154.435 81.2239L154.423 81.235L154.412 81.2462L154.401 81.2573L154.39 81.2685L154.379 81.2796L154.368 81.2907L154.357 81.3019L154.345 81.313L154.334 81.3242L154.323 81.3353L154.312 81.3465L154.301 81.3576L154.29 81.3688L154.279 81.3799L154.267 81.391H154.256L154.245 81.4022L154.234 81.4133H154.223L154.212 81.4245H154.201L154.189 81.4356H154.178H154.167H154.156H154.145H154.134H154.123H154.111H154.089H154.078H154.067H154.056H154.044H154.033H154.022H154.011H154H153.989H153.978H153.966H153.955H153.944H153.933H153.922H153.911L153.9 81.4245H153.888L153.877 81.4133H153.866L153.855 81.4022L153.844 81.391H153.833L153.822 81.3799L153.81 81.3688L153.799 81.3576L153.788 81.3465L153.777 81.3353L153.766 81.3242L153.755 81.313L153.744 81.3019L153.732 81.2907L153.721 81.2796L153.71 81.2685L153.699 81.2573L153.688 81.2462L153.677 81.235L153.666 81.2239L153.654 81.2127L153.643 81.2016C153.186 81.1124 153.22 80.7001 153.51 80.4772ZM151.671 78.2482C151.949 78.0142 152.362 78.0587 152.596 78.3373C152.83 78.616 152.785 79.0283 152.506 79.2624C152.228 79.4964 151.816 79.4518 151.581 79.1732C151.359 78.8946 151.392 78.4711 151.671 78.2482ZM149.843 76.0192C150.121 75.7852 150.534 75.8297 150.768 76.1084C151.002 76.387 150.957 76.7994 150.679 77.0334C150.4 77.2674 149.988 77.2229 149.754 76.9442C149.52 76.6656 149.564 76.2421 149.843 76.0192ZM148.015 73.7902C148.294 73.5562 148.706 73.6008 148.94 73.8794C149.174 74.158 149.13 74.5704 148.851 74.8044C148.572 75.0385 148.16 74.9939 147.926 74.7153C147.692 74.4366 147.736 74.0131 148.015 73.7902Z" fill="white" fill-opacity="0.3"/>
</svg>
