<svg width="112" height="22" viewBox="0 0 112 22" fill="none" xmlns="http://www.w3.org/2000/svg">
<path d="M0.667525 22H9.03045C14.1015 22 16.392 19.4751 16.392 16.13C16.392 12.7528 14.0269 10.8459 11.8643 10.7287V10.5156C13.8671 10.0043 15.5397 8.64062 15.5397 5.91335C15.5397 2.68537 13.3025 0.181818 8.65758 0.181818H0.667525V22ZM3.95943 19.1768V12.1882H8.82804C11.4701 12.1882 13.1214 13.8928 13.1214 15.9702C13.1214 17.8026 11.8749 19.1768 8.71085 19.1768H3.95943ZM3.95943 9.62074V2.98366H8.45517C11.0653 2.98366 12.3117 4.35795 12.3117 6.16903C12.3117 8.27841 10.5858 9.62074 8.36994 9.62074H3.95943ZM20.2964 22H34.1033V19.1662H23.5883V12.4865H33.2616V9.66335H23.5883V3.01562H33.9754V0.181818H20.2964V22ZM60.6382 22H74.445V19.1662H63.9301V12.4865H73.6034V9.66335H63.9301V3.01562H74.3172V0.181818H60.6382V22ZM78.7144 22H82.0063V13.7436H86.4807C86.5553 13.7436 86.6192 13.7436 86.6938 13.7436L91.1256 22H94.8756L90.039 13.1683C92.713 12.1776 94.0447 9.95099 94.0447 7.02131C94.0447 3.00497 91.5518 0.181818 86.4914 0.181818H78.7144V22ZM82.0063 10.9098V3.00497H86.1398C89.3891 3.00497 90.7314 4.54972 90.7314 7.02131C90.7314 9.48224 89.3891 10.9098 86.1824 10.9098H82.0063Z" fill="#2D2D2D"/>
<path d="M38.3726 22H41.6645V12.4865H52.5416V22H55.8442V0.181818H52.5416V9.66335H41.6645V0.181818H38.3726V22ZM98.0503 22H111.857V19.1662H101.342V12.4865H111.016V9.66335H101.342V3.01562H111.729V0.181818H98.0503V22Z" fill="#F2B705"/>
</svg>
